<svg width="200" height="60" viewBox="0 0 102 60" fill="none" xmlns="http://www.w3.org/2000/svg">
<path d="M26.88 0.479997L25.68 6.6H24.42C22.82 6.6 21.6 6.96 20.76 7.68C19.96 8.36 19.42 9.42 19.14 10.86L16.8 22.44C16.4 24.36 15.84 25.78 15.12 26.7C14.44 27.62 13.4 28.28 12 28.68C13.72 29.36 14.58 30.72 14.58 32.76C14.58 33.08 14.5 33.72 14.34 34.68L12.18 45.6C12.06 46.16 12 46.66 12 47.1C12 48.22 12.3 49.06 12.9 49.62C13.54 50.22 14.42 50.52 15.54 50.52H16.86L15.66 56.64H12.6C9.96 56.64 7.9 55.96 6.42 54.6C4.98 53.28 4.26 51.42 4.26 49.02C4.26 48.14 4.34 47.3 4.5 46.5L6.9 34.5C6.98 34.02 7.02 33.72 7.02 33.6C7.02 32.28 6.3 31.62 4.86 31.62H2.76L3.96 25.5H6C7.76 25.5 8.84 24.54 9.24 22.62L11.76 10.02C12.44 6.7 13.72 4.28 15.6 2.76C17.52 1.24 20.26 0.479997 23.82 0.479997H26.88ZM35.2856 8.874H44.0336L37.4456 42.786C37.0496 44.766 36.4916 46.458 35.7716 47.862C35.0516 49.302 34.1516 50.562 33.0716 51.642C32.0276 52.722 30.8036 53.676 29.3996 54.504C27.9956 55.368 26.4296 56.214 24.7016 57.042L21.6236 51.048C23.8556 50.04 25.4936 48.888 26.5376 47.592C27.5816 46.332 28.2836 44.784 28.6436 42.948L35.2856 8.874ZM59.9244 8.226C61.6884 8.226 63.1644 8.424 64.3524 8.82C65.5404 9.216 66.5124 9.756 67.2684 10.44C68.0244 11.088 68.6184 11.844 69.0504 12.708C69.4824 13.536 69.8424 14.4 70.1304 15.3L63.3264 18.432C62.9304 17.28 62.4984 16.416 62.0304 15.84C61.5984 15.228 60.8964 14.922 59.9244 14.922C58.8804 14.922 58.0524 15.228 57.4404 15.84C56.8284 16.416 56.5224 17.118 56.5224 17.946C56.5224 18.99 56.7564 19.782 57.2244 20.322C57.6924 20.862 58.3044 21.402 59.0604 21.942L63.8124 25.452C65.2164 26.496 66.3144 27.738 67.1064 29.178C67.9344 30.618 68.3484 32.346 68.3484 34.362C68.3484 36.27 67.9524 37.944 67.1604 39.384C66.4044 40.788 65.3604 41.958 64.0284 42.894C62.7324 43.83 61.2384 44.532 59.5464 45C57.8544 45.468 56.0904 45.702 54.2544 45.702C51.6264 45.702 49.3404 45.414 47.3964 44.838C45.4524 44.226 43.7244 43.506 42.2124 42.678L45.9924 35.982C47.3244 36.774 48.6564 37.476 49.9884 38.088C51.3204 38.664 52.6884 38.952 54.0924 38.952C55.5684 38.952 56.7384 38.646 57.6024 38.034C58.5024 37.386 58.9524 36.396 58.9524 35.064C58.9524 34.02 58.7004 33.174 58.1964 32.526C57.6924 31.842 57.0264 31.194 56.1984 30.582L52.3644 27.774C51.5004 27.126 50.7444 26.478 50.0964 25.83C49.4484 25.182 48.9084 24.48 48.4764 23.724C48.0444 22.968 47.7024 22.14 47.4504 21.24C47.2344 20.34 47.1264 19.332 47.1264 18.216C47.1264 16.632 47.4504 15.228 48.0984 14.004C48.7464 12.744 49.6464 11.7 50.7984 10.872C51.9504 10.008 53.3004 9.36 54.8484 8.928C56.3964 8.46 58.0884 8.226 59.9244 8.226ZM91.0249 25.5L89.8249 31.62H87.7849C86.0249 31.62 84.9649 32.58 84.6049 34.5L82.0249 47.1C81.3449 50.42 80.0449 52.84 78.1249 54.36C76.2449 55.88 73.5249 56.64 69.9649 56.64H66.9649L68.1649 50.52H69.3649C70.9649 50.52 72.1649 50.16 72.9649 49.44C73.8049 48.76 74.3849 47.7 74.7049 46.26L77.0449 34.68C77.4449 32.72 77.9849 31.28 78.6649 30.36C79.3849 29.44 80.4449 28.8 81.8449 28.44C80.1249 27.72 79.2649 26.38 79.2649 24.42C79.2649 23.74 79.3449 23.08 79.5049 22.44L81.6649 11.52C81.7849 10.96 81.8449 10.46 81.8449 10.02C81.8449 8.9 81.5249 8.06 80.8849 7.5C80.2849 6.9 79.4249 6.6 78.3049 6.6H76.9849L78.1849 0.479997H81.1849C83.8249 0.479997 85.8849 1.16 87.3649 2.52C88.8449 3.84 89.5849 5.68 89.5849 8.04C89.5849 8.76 89.4849 9.62 89.2849 10.62L86.9449 22.62C86.8649 23.1 86.8249 23.4 86.8249 23.52C86.8249 24.84 87.5449 25.5 88.9849 25.5H91.0249Z" fill="#FD4E56"/>
</svg>
